# xmcd CD database file
#
# Track frame offsets:
#	150
#	14095
#	29390
#	42277
#	55370
#	69177
#	82855
#	97200
#	113180
#	127845
#	141200
#	154020
#	165687
#	178352
#	191820
#	204627
#	217550
#	230395
#	244170
#	258037
#	272755
#
# Disc length: 3813 seconds
#
# Revision: 0
# Processed by: cddbd v1.5.2PL0 Copyright (c) Steve Scherf et al.
# Submitted via: CDex 1.70beta2
#
DISCID=260ee315
DTITLE=Scrapper Blackwell - Complete Recorded Works In Chronological Order (Vol. 1) (1928-32)
DYEAR=1992
DGENRE=Blues
TTITLE0=Kokomo Blues
TTITLE1=Penal Farm Blues
TTITLE2=Mr. Scrapper's Blues
TTITLE3=Down And Out Blues
TTITLE4=Trouble Blues Part 1
TTITLE5=Trouble Blues part 2
TTITLE6=Non Skid Tread
TTITLE7=Be Da Da Bum
TTITLE8=Springtime Blues
TTITLE9=Rocky Luck Blues
TTITLE10=Mean Baby Blues (Robinson's Knights Of Rest)
TTITLE11=Rambling Blues
TTITLE12=Blues Day Blues
TTITLE13=Down South Blues
TTITLE14=Sneaking Blues
TTITLE15=Hard Times Blues
TTITLE16=Back Door Blues
TTITLE17=Down In Black Bottom 
TTITLE18=My Dream Blues
TTITLE19=Whiskey Man Blues
TTITLE20=Mix That Thing
EXTD=YEAR: 1992
EXTT0=
EXTT1=
EXTT2=
EXTT3=
EXTT4=
EXTT5=
EXTT6=
EXTT7=
EXTT8=
EXTT9=
EXTT10=
EXTT11=
EXTT12=
EXTT13=
EXTT14=
EXTT15=
EXTT16=
EXTT17=
EXTT18=
EXTT19=
EXTT20=
PLAYORDER=
